<svg xmlns="http://www.w3.org/2000/svg" width="32" height="32" viewBox="0 0 32 32">
  <path fill="#666" d="M16.2139264,14.7722249 C16.2139264,14.7722249 15.2794404,14.5125533 15.0291941,14.3836255 C14.5304516,14.0603979 14.2189562,13.412127 14.2189562,12.763856 C14.2189562,12.0520291 14.7789479,11.4673141 15.1534423,11.0151587 C16.0896782,9.84754461 16.5884208,8.29314701 16.5884208,6.54444971 C16.5884208,2.91631138 14.0929581,0 11.0375038,0 C7.98204957,0 5.48833689,2.97986736 5.48833689,6.60982157 C5.48833689,8.35851887 6.04832851,9.91473235 6.92331542,11.0787147 C7.48330704,11.4037581 7.85780143,12.115585 7.85780143,12.8292279 C7.85780143,13.4774988 7.5463061,14.0603979 7.04756356,14.4489973 L7.04756356,14.5125533 C6.9845645,14.5125533 6.92156544,14.5779252 6.92156544,14.5779252 C6.62530589,14.7818062 6.27947844,14.8944985 5.92408037,14.9029686 C3.55461583,15.7437234 1.55964569,17.0402653 0.374913417,18.6600347 L0.4361625,18.6600347 C0.143409295,19.0963689 -0.00908847668,19.6174853 0.000419021418,20.1490605 C0.000419021418,21.705274 1.24815035,23 2.80737701,23 L19.2693807,23 C20.8916064,23 22.1393377,21.7706458 22.1393377,20.1490605 C22.1393377,19.5026054 21.8890915,18.9197063 21.5775961,18.4003632 C20.3928638,16.7805937 18.5221418,15.5494237 16.2139264,14.7722249 Z M27.3770093,17.6231644 C26.3165252,16.2612506 24.6942995,15.0972683 22.6363303,14.4489973 C22.6363303,14.4489973 21.8260924,14.2546976 21.5775961,14.1239539 C21.1380289,13.793807 20.8818438,13.2614608 20.8916064,12.6984841 C20.8916064,12.0520291 21.3903489,11.5326859 21.7018443,11.2094584 C22.5652707,10.0882658 23.027813,8.69136634 23.0108247,7.25627665 C23.0108247,4.08210958 20.8286073,1.42546976 18.0846484,1.42546976 C17.6471549,1.42546976 17.2114115,1.49084162 16.8369171,1.61976946 C17.773153,3.04523922 18.2718956,4.73038055 18.2718956,6.60800568 C18.2718956,8.61819043 17.5859058,10.5611874 16.3994236,12.1809569 L16.2769254,12.3098847 L16.2769254,12.3752566 C16.1509273,12.5041844 15.9636801,12.6984841 15.902431,12.8927838 C15.902431,12.9581557 15.902431,12.9581557 15.9636801,12.9581557 C16.1190817,13.0397701 16.2900541,13.0844332 16.4641726,13.0888994 L16.5254217,13.0888994 L16.775668,13.2160114 C19.3306297,14.0603979 21.5145971,15.5494237 22.9495756,17.4288647 C23.5725663,18.2714353 23.9470607,19.2447497 23.9470607,20.2798042 C23.9470607,20.8627033 23.8210625,21.3166746 23.6355653,21.8342018 L25.4432883,21.8342018 C26.8782668,21.8342018 28,20.7337755 28,19.3083057 C27.9370009,18.5946629 27.7497537,18.0771356 27.3770093,17.6231644 L27.3770093,17.6231644 Z" transform="translate(2 4)"/>
</svg>
