<svg xmlns="http://www.w3.org/2000/svg" width="21" height="20" viewBox="0 0 21 20">
  <g fill="none" fill-rule="evenodd" transform="translate(.571)">
    <rect width="20" height="20" fill="#2CA7F8" rx="4"/>
    <path fill="#FFF" fill-rule="nonzero" d="M10.7916667,8.4057971 C10.7916667,8.80550725 10.4647083,9.13043478 10.0625,9.13043478 L1.60416667,9.13043478 C1.20159235,9.13011511 0.875321668,8.80587096 0.874999991,8.4057971 L0.874999991,2.46376812 L10.0625,2.46376812 C10.4647083,2.46376812 10.7916667,2.78869565 10.7916667,3.1884058 L10.7916667,8.4057971 Z M0.874999991,1.01449276 C0.874999991,0.934782615 0.940624995,0.86956522 1.02083333,0.86956522 L4.844,0.86956522 C4.89533333,0.86956522 4.94345833,0.896811592 4.96970834,0.940869569 L5.35820833,1.5942029 L0.874999991,1.5942029 L0.874999991,1.01449276 Z M10.0625,1.5942029 L6.374375,1.5942029 L5.72308333,0.498550726 C5.53882468,0.190138281 5.20491769,0.000771053396 4.844,0 L1.02083333,0 C0.457916657,0 0,0.455072466 0,1.01449276 L0,8.4057971 C0,9.28463768 0.719833335,10 1.60416667,10 L10.0625,10 C10.9468333,10 11.6666667,9.28463768 11.6666667,8.4057971 L11.6666667,3.1884058 C11.6666667,2.30956522 10.9468333,1.5942029 10.0625,1.5942029 Z" transform="translate(3.889 5.556)"/>
  </g>
</svg>
