<svg xmlns="http://www.w3.org/2000/svg" width="32" height="32" viewBox="0 0 32 32">
  <path fill="#3B9FFF" d="M21.4802314,0 L2.51976856,0 C1.12825458,0 0,1.12947991 0,2.52250513 L0,21.4774949 C0,22.8705201 1.12825458,24 2.51976856,24 L21.4802314,24 C22.8717454,24 24,22.8705201 24,21.4774949 L24,2.52250513 C24,1.12947991 22.8717454,0 21.4802314,0 Z M4.36547734,4.52660794 L19.7386692,4.52660794 C20.1697203,4.52660794 20.7309547,4.90310124 20.7309547,5.45625679 C20.7309547,6.0905032 20.1697203,6.38590564 19.7386692,6.38590564 L4.36547734,6.38590564 C3.93442623,6.38590564 3.36740598,6.08181489 3.36740598,5.45625679 C3.36740598,4.90310124 3.93442623,4.52660794 4.36547734,4.52660794 Z M3.34715526,11.0544226 C3.31533269,10.3767346 3.93153327,10.0929166 4.32497589,10.0929166 L14.2507232,10.0929166 C14.6412729,10.0929166 15.147541,10.2840594 15.147541,11.0544226 C15.147541,11.830578 14.6210222,12.0159286 14.2275796,12.0159286 L4.25554484,12.0159286 C3.86210222,12.0159286 3.37029894,11.5293834 3.34715526,11.0544226 L3.34715526,11.0544226 Z M20.3548698,11.8103053 L11.5168756,20.7187161 C11.4214079,20.8142874 11.2970106,20.8780017 11.1610415,20.8982744 L9.59594986,21.1212743 C9.32401157,21.1589236 9.09257473,20.9185471 9.14464802,20.6492096 L9.50916104,18.7493665 L18.4194793,9.87570894 C18.954677,9.33993001 19.8225651,9.33993001 20.3577628,9.87570894 C20.8900675,10.4056957 20.8900675,11.2745264 20.3548698,11.8103053 L20.3548698,11.8103053 Z" transform="translate(4 4)"/>
</svg>
