<svg xmlns="http://www.w3.org/2000/svg" width="32" height="32" viewBox="0 0 32 32">
  <path fill="#3B9FFF" d="M12.4911779,0.149777326 C14.1952997,1.32605672 15.7485535,2.15805922 17.1440817,2.6390343 C18.2155868,3.01031331 20.274591,3.51660286 23.3210944,4.15621533 C23.7154082,4.24059692 24,4.58656145 24,4.98821783 L24,15.9628877 C24.0017144,20.5667474 15.2993785,27 12.0008572,27 C8.70233588,27 0,20.5667474 0,15.9628877 L0,4.98990546 C0,4.58824908 0.282877348,4.24059692 0.680620044,4.15790296 C3.72540896,3.51997812 5.78269876,3.0153762 6.85248946,2.64578483 C8.25487535,2.16143449 9.80812915,1.32943199 11.5105365,0.15315259 C11.8054147,-0.0510508633 12.1962997,-0.0510508633 12.4911779,0.15315259 L12.4911779,0.149777326 Z M10.8007715,14.962122 L10.8007715,22.3252598 C10.8007715,23.0306899 11.3768126,23.6011095 12.0865776,23.6011095 C12.7963426,23.6011095 13.3723837,23.0306899 13.3723837,22.3252598 L13.3723837,19.3516525 L14.6581899,19.3516525 C15.3679549,19.3516525 15.943996,18.7812329 15.943996,18.0774904 C15.9453628,17.740456 15.8106615,17.4166915 15.5695255,17.1774226 C15.3283895,16.9381538 15.0005718,16.8029808 14.6581899,16.8016408 L13.3723837,16.8016408 L13.3723837,14.9199312 C15.6072958,14.2992668 17.1490441,12.2897355 17.1440937,10.0038597 C17.1440937,7.18720213 14.8416315,4.90383624 12.0008572,4.90383624 C9.16008286,4.90383624 6.85763269,7.18720213 6.85763269,10.0055473 C6.85763269,12.4121103 8.5377527,14.4271427 10.8007715,14.9638097 L10.8007715,14.962122 Z M12.0008572,12.5538714 C10.5813272,12.5538714 9.42924495,11.4130323 9.42924495,10.0055473 C9.42924495,8.59637472 10.5813272,7.45722322 12.0008572,7.45722322 C13.4203872,7.45722322 14.5724695,8.59637472 14.5724695,10.0055473 C14.5724695,11.4130323 13.4203872,12.5538714 12.0008572,12.5538714 Z" transform="translate(4 3)"/>
</svg>
