<svg xmlns="http://www.w3.org/2000/svg" width="14" height="18" viewBox="0 0 14 18">
  <g fill="none" fill-rule="evenodd" opacity=".65" transform="translate(-3 -1)">
    <rect width="20" height="20"/>
    <path fill="#000" fill-rule="nonzero" d="M12.5273437,14.2382812 C12.1992188,13.4628906 11.7285156,12.765625 11.1308594,12.1679688 C10.5332031,11.5703125 9.8359375,11.0996094 9.06054688,10.7714844 C8.796875,10.6601562 8.52539062,10.5664062 8.25195312,10.4902344 C9.02539063,10.2285156 9.734375,9.79101562 10.328125,9.19726562 C11.34375,8.18164062 11.9042969,6.83007812 11.9042969,5.39453125 C11.9042969,3.95898437 11.3457031,2.60742187 10.328125,1.59179688 C9.3125,0.576171875 7.9609375,0.015625 6.52539062,0.015625 C5.08984375,0.015625 3.73828125,0.57421875 2.72265625,1.59179688 C1.70703125,2.60742187 1.14648437,3.95898437 1.14648437,5.39453125 C1.14648437,6.83007812 1.70507812,8.18164062 2.72265625,9.19726562 C3.31640625,9.79101562 4.02539062,10.2285156 4.79882812,10.4902344 C4.52539062,10.5664062 4.25390625,10.6582031 3.99023437,10.7714844 C3.21484375,11.0996094 2.51757812,11.5703125 1.91992187,12.1679688 C1.32226562,12.765625 0.8515625,13.4628906 0.5234375,14.2382812 C0.18359375,15.0429688 0.01171875,15.8945312 0.01171875,16.7753906 C0.01171875,17.1640625 0.326171875,17.4785156 0.71484375,17.4785156 C1.10351562,17.4785156 1.41796875,17.1640625 1.41796875,16.7753906 C1.41796875,15.4101562 1.94921875,14.1269531 2.9140625,13.1621094 C3.87890625,12.1972656 5.16210937,11.6660156 6.52734375,11.6660156 C7.89257812,11.6660156 9.17578125,12.1972656 10.140625,13.1621094 C11.1054687,14.1269531 11.6367188,15.4101562 11.6367188,16.7753906 C11.6367188,17.1640625 11.9511719,17.4785156 12.3398438,17.4785156 C12.7285156,17.4785156 13.0429688,17.1640625 13.0429688,16.7753906 C13.0390625,15.8945312 12.8671875,15.0429688 12.5273437,14.2382812 Z M2.55078125,5.39453125 C2.55078125,3.203125 4.33398438,1.421875 6.5234375,1.421875 C8.71289062,1.421875 10.4960938,3.203125 10.4960938,5.39453125 C10.4960938,7.5859375 8.71484375,9.3671875 6.5234375,9.3671875 C4.33203125,9.3671875 2.55078125,7.58398437 2.55078125,5.39453125 Z" transform="translate(3.477 1.27)"/>
  </g>
</svg>
