<svg xmlns="http://www.w3.org/2000/svg" width="14" height="18" viewBox="0 0 14 18">
  <g fill="none" fill-rule="evenodd" opacity=".65" transform="translate(-3 -1)">
    <rect width="20" height="20"/>
    <path fill="#000" fill-rule="nonzero" d="M12.7167969,4.27929688 C12.3789063,3.4453125 11.9003906,2.69921875 11.296875,2.06445312 C10.6933594,1.42382813 9.98632813,0.91796875 9.1953125,0.5625 C8.37695313,0.197265625 7.51171875,0.01171875 6.62109375,0.01171875 C5.73046875,0.01171875 4.86328125,0.197265625 4.04492188,0.564453125 C3.25390625,0.91796875 2.54882812,1.42382812 1.94335937,2.06445312 C1.33398437,2.70703125 0.85546875,3.453125 0.5234375,4.27929688 C0.177734375,5.13476562 0.001953125,6.04492187 0.001953125,6.98632812 L0.001953125,16.1699219 C0.001953125,16.9199219 0.58203125,17.5292969 1.296875,17.5292969 L11.9394531,17.5292969 C12.6542969,17.5292969 13.2344387,16.9199219 13.2304688,16.1699219 L13.2304688,8.06445312 L13.2344387,7.69140625 L13.2344387,6.98632812 C13.2382813,6.04882812 13.0625,5.13867188 12.7167969,4.27929688 Z M4.56445312,1.79296875 L4.56835938,1.79296875 L4.59375,1.78320313 C5.23242188,1.4921875 5.9140625,1.34570313 6.61914063,1.34570313 C7.3203125,1.34570313 8.00390625,1.49414063 8.64648438,1.77929688 C9.26953125,2.06054688 9.8359375,2.46484375 10.3261719,2.97851562 C10.8203125,3.5 11.2050781,4.10351563 11.4765625,4.77539063 C11.7597656,5.47460938 11.9023438,6.21679688 11.9023438,6.98632813 L11.9023438,7.56445313 L1.3359375,7.56445313 L1.3359375,7.56445313 L1.3359375,6.984375 C1.3359375,6.22265625 1.47851563,5.48046875 1.76171875,4.77539063 C2.03515625,4.09765625 2.42382812,3.49414063 2.91210937,2.98046875 C3.3984375,2.46875 3.95117188,2.06835938 4.56445312,1.79296875 Z M11.9082031,8.89453125 L11.9082031,16.1679688 C11.9082031,16.1796875 11.90625,16.1894531 11.9042969,16.1953125 L1.33984375,16.1953125 C1.33789062,16.1894531 1.3359375,16.1796875 1.3359375,16.1679688 L1.3359375,8.89453125 L11.9082031,8.89453125 Z M6.00390625,11.8945313 L6.00390625,13.6425781 C6.00390625,13.984375 6.28125,14.2617188 6.62304688,14.2617188 C6.96484375,14.2617188 7.2421875,13.984375 7.2421875,13.6425781 L7.2421875,11.890625 C7.5703125,11.6796875 7.76757813,11.3242188 7.76757813,10.9296875 C7.76757813,10.296875 7.25390625,9.78320313 6.62109375,9.78320313 C5.98828125,9.78320313 5.47460938,10.296875 5.47460938,10.9296875 C5.4765625,11.3183594 5.67773438,11.6855469 6.00390625,11.8945313 Z" transform="translate(3.379 1.23)"/>
  </g>
</svg>
