<svg xmlns="http://www.w3.org/2000/svg" xmlns:xlink="http://www.w3.org/1999/xlink" width="356" height="268" viewBox="0 0 356 268">
  <defs>
    <filter id="login-bg-a" width="120.8%" height="128.1%" x="-10.4%" y="-14.1%" filterUnits="objectBoundingBox">
      <feOffset dy="8" in="SourceAlpha" result="shadowOffsetOuter1"/>
      <feGaussianBlur in="shadowOffsetOuter1" result="shadowBlurOuter1" stdDeviation="5"/>
      <feColorMatrix in="shadowBlurOuter1" result="shadowMatrixOuter1" values="0 0 0 0 0   0 0 0 0 0   0 0 0 0 0  0 0 0 0.1 0"/>
      <feMerge>
        <feMergeNode in="shadowMatrixOuter1"/>
        <feMergeNode in="SourceGraphic"/>
      </feMerge>
    </filter>
    <path id="login-bg-b" d="M0.3049375,1.28828571 L26.9891042,16.8471429 C32.2183125,15.0788571 36.8888958,15.3994286 40.5156875,17.5097143 L40.5156875,17.5097143 L13.8400625,1.95 C11.7968958,0.759428571 9.424875,0.138857143 6.8085625,0.138857143 L6.8085625,0.138857143 C4.77479167,0.138857143 2.59239583,0.514285714 0.3049375,1.28828571"/>
    <linearGradient id="login-bg-c" x1="55.701%" x2="47.012%" y1="45.839%" y2="53.122%">
      <stop offset="0%" stop-color="#C8F9FF"/>
      <stop offset="100%" stop-color="#42DDFF"/>
    </linearGradient>
    <path id="login-bg-e" d="M28.8298645,4.4258565 C15.3368,12.2071298 3.96487097,29.0168073 0.230574194,45.2681063 L0.230574194,45.2681063 L25.9484839,61.8093162 C29.6827806,45.5554439 41.0581419,28.7509128 54.5452,20.9670663 L54.5452,20.9670663 C62.883871,16.1560917 70.4356968,15.7066442 75.8844065,18.8776503 L75.8844065,18.8776503 C66.9502387,13.6858462 59.0998065,7.52309833 50.1656387,2.33043646 L50.1656387,2.33043646 C47.8788968,1.00267951 45.2197548,0.310495718 42.2894645,0.310495718 L42.2894645,0.310495718 C38.2368258,0.30963841 33.6650581,1.63310674 28.8298645,4.4258565"/>
    <linearGradient id="login-bg-f" x1="72.432%" x2="22.836%" y1="21.46%" y2="75.954%">
      <stop offset="0%" stop-color="#C8F9FF"/>
      <stop offset="100%" stop-color="#42DDFF"/>
    </linearGradient>
    <path id="login-bg-h" d="M0.319245283,30.482978 L25.770566,46.7949168 C27.0543396,35.1605668 35.1229245,22.1240396 44.9617925,16.3639496 L44.9617925,16.3639496 L19.5138679,0.0545479082 C9.67245283,5.81463788 1.60301887,18.8545479 0.319245283,30.482978"/>
    <linearGradient id="login-bg-i" x1="65.16%" x2="31.767%" y1="16.702%" y2="73.416%">
      <stop offset="0%" stop-color="#C8F9FF"/>
      <stop offset="100%" stop-color="#42DDFF"/>
    </linearGradient>
    <path id="login-bg-k" d="M0.0667639558,32.8622536 C0.0871538462,38.9812576 2.21269231,43.2896059 5.65146154,45.3146925 L5.65146154,45.3146925 L30.3227692,61.4038817 C27.2943846,59.2278356 25.4463846,55.1013248 25.4311538,49.4026057 L25.4311538,49.4026057 C25.3964615,37.4965371 33.3723077,23.1193653 43.4516923,16.5792188 L43.4516923,16.5792188 L18.0873846,0.0354357792 C8.01392308,6.5807286 0.0372307692,20.956185 0.0667639558,32.8622536 M31.0123846,61.8533292 L30.3227692,61.4038817 C30.547,61.5642761 30.7763077,61.7135201 31.0123846,61.8533292"/>
    <linearGradient id="login-bg-l" x1="57.978%" x2="40.943%" y1="8.56%" y2="80.787%">
      <stop offset="0%" stop-color="#C8F9FF"/>
      <stop offset="100%" stop-color="#42DDFF"/>
    </linearGradient>
    <path id="login-bg-n" d="M65.435854,4.613125 C52.1271825,12.3016667 40.9022774,28.9004444 37.2173723,44.9553056 L37.2173723,44.9553056 C27.405635,50.7257361 19.3592993,63.7856667 18.0790657,75.4409028 L18.0790657,75.4409028 C7.9929927,81.9009722 0.0118540146,96.1021111 0.0464565232,107.862403 L0.0464565232,107.862403 C0.0812846715,120.033597 8.68221898,124.935625 19.267854,118.823764 L19.267854,118.823764 C28.7713869,113.335458 77.9841752,84.9001389 89.2124672,78.4180417 L89.2124672,78.4180417 C103.853022,69.9585278 115.679095,49.463375 115.630138,32.6256806 L115.630138,32.6256806 C115.59019,17.9348472 106.523562,10.9062917 94.4908905,14.9577083 L94.4908905,14.9577083 C92.6061022,5.73230556 86.6824818,0.549 78.7191241,0.549 L78.7191241,0.549 C74.7209343,0.549 70.2087883,1.85541667 65.435854,4.613125"/>
    <linearGradient id="login-bg-o" x1="83.14%" x2="11.944%" y1="10.131%" y2="104.52%">
      <stop offset="0%" stop-color="#C8F9FF"/>
      <stop offset="100%" stop-color="#42DDFF"/>
    </linearGradient>
    <path id="login-bg-q" d="M65.9768739,4.12933803 C52.9233043,11.6765 41.5984645,27.8811268 37.7979828,44.4504577 L37.7979828,44.4504577 L37.7588289,44.6166197 L37.6132785,44.7035352 C28.0367454,50.3385563 19.8476223,63.3920704 18.5657577,75.0677183 L18.5657577,75.0677183 L18.5461807,75.254331 L18.3870116,75.3574366 C8.28956143,81.8275282 0.406008913,96.0041268 0.441637026,107.631204 L0.441637026,107.631204 C0.46388859,115.820859 4.4039625,120.90712 10.7239126,120.90712 L10.7239126,120.90712 C13.3514797,120.90712 16.1935421,120.035408 19.1709408,118.314993 L19.1709408,118.314993 L42.7398858,104.69312 C60.5395889,94.4038592 82.4419398,81.7448732 89.4853858,77.6777394 L89.4853858,77.6777394 C104.06766,69.2460845 115.892137,48.7382887 115.844615,31.9627465 L115.844615,31.9627465 C115.81383,20.5427324 110.301641,13.4488944 101.463074,13.4488944 L101.463074,13.4488944 C99.454309,13.4488944 97.3170168,13.8246761 95.1141844,14.5668662 L95.1141844,14.5668662 L94.6894497,14.7083169 L94.601779,14.270331 C92.7615458,5.26264789 87.1225331,0.0954366197 79.1317329,0.0954366197 L79.1317329,0.0954366197 C75.0350434,0.0954366197 70.6098016,1.45285211 65.9768739,4.12933803"/>
    <linearGradient id="login-bg-r" x1="0%" x2="100%" y1="50%" y2="50%">
      <stop offset="0%" stop-color="#11C1E8"/>
      <stop offset="100%" stop-color="#7C1DDB"/>
    </linearGradient>
    <path id="login-bg-t" d="M102.203873,3.25311765 L3.41607419,58.7471765 C1.20700736,60.0214706 0.081601535,62.2433824 0.0517838184,64.4849118 L0.0517838184,64.4849118 C0.0398567317,65.2167353 0.0517838184,75.3803824 0.0517838184,76.0823529 L0.0517838184,76.0823529 C0.0517838184,78.3443529 1.16355868,80.6037941 3.40073937,81.9045294 L3.40073937,81.9045294 L57.638314,113.263765 C63.8719207,116.871706 71.6023767,116.881941 77.8376872,113.283382 L77.8376872,113.283382 L176.622931,57.7782353 C178.901004,56.4655588 180.016187,54.1540882 179.984498,51.8477353 L179.984498,51.8477353 C179.975294,51.185 179.980406,41.1851176 179.984498,40.5027647 L179.984498,40.5027647 C180.001704,38.2211471 178.890781,35.9352647 176.634006,34.6277059 L176.634006,34.6277059 L122.401543,3.27870588 C119.280906,1.46791176 115.781158,0.561235294 112.280558,0.561235294 L112.280558,0.561235294 C108.797848,0.561235294 105.314287,1.45852941 102.203873,3.25311765"/>
    <linearGradient id="login-bg-u" x1="-2.729%" x2="123.951%" y1="50%" y2="50%">
      <stop offset="0%" stop-color="#11C1E8"/>
      <stop offset="100%" stop-color="#7C1DDB"/>
    </linearGradient>
    <path id="login-bg-w" d="M8.15432692,0.834 L1.71846154,4.44857143 C0.776057692,4.98514286 0.0119230769,6.29742857 0.0162317143,7.36885714 L0.0162317143,7.36885714 L0.0240384615,16.326 C0.0275,17.4008571 0.798557692,17.8345714 1.74096154,17.2937143 L1.74096154,17.2937143 L8.17509615,13.6782857 C9.11923077,13.1408571 9.88423077,11.8328571 9.87992211,10.7562857 L9.87992211,10.7562857 L9.86951923,1.8 C9.86778846,1.04057143 9.48096154,0.601714286 8.92019231,0.601714286 L8.92019231,0.601714286 C8.68913462,0.601714286 8.42951923,0.676285714 8.15432692,0.834"/>
    <linearGradient id="login-bg-x" x1="33.597%" x2="69.866%" y1="29.098%" y2="75.327%">
      <stop offset="0%" stop-color="#7C1DDB"/>
      <stop offset="100%" stop-color="#11C1E8"/>
    </linearGradient>
    <path id="login-bg-z" d="M58.3593064,1.61632681 L1.92611699,33.2386306 C0.663270443,33.9654534 0.0212314482,35.2291243 0.00254777379,36.5072129 L0.00254777379,36.5072129 C0,36.616618 0,37.1314154 0,37.8387319 L0,37.8387319 L0,39.1897572 C0,41.12258 0.00254777379,43.4234787 0.00254777379,43.660099 L0.00254777379,43.660099 C0.00254777379,44.9475167 0.638641963,46.2366306 1.91677515,46.9753268 L1.91677515,46.9753268 L32.9002522,64.8431243 C36.46204,66.9014661 40.8764827,66.9065547 44.4416675,64.8583901 L44.4416675,64.8583901 L100.87146,33.2301496 C102.173372,32.4829724 102.810316,31.1641749 102.791219,29.8504661 L102.791219,29.8504661 C102.786537,29.473061 102.789934,23.2318838 102.791219,22.8417572 L102.791219,22.8417572 C102.801823,21.5424661 102.166578,20.2406306 100.878254,19.4943015 L100.878254,19.4943015 L69.8973247,1.63159264 C68.113883,0.599453395 66.1138806,0.0838078251 64.1147274,0.0838078251 L64.1147274,0.0838078251 C62.1249161,0.0838078251 60.1351048,0.594364787 58.3593064,1.61632681"/>
    <linearGradient id="login-bg-A" x1="-1.884%" x2="156.608%" y1="50%" y2="50%">
      <stop offset="0%" stop-color="#11C1E8"/>
      <stop offset="100%" stop-color="#7C1DDB"/>
    </linearGradient>
    <path id="login-bg-C" d="M88.073641,2.09704918 L3.0212,49.7836066 C1.36375385,50.7400656 0.520984615,52.406623 0.498,54.0876721 L0.498,54.0876721 C0.486933333,54.6375082 0.498,62.2141639 0.498,62.7426885 L0.498,62.7426885 C0.498,64.437377 1.33055385,66.1363279 3.01013333,67.1089836 L3.01013333,67.1089836 L63.0765949,101.707738 C67.7526872,104.416852 73.5507692,104.425377 78.2311179,101.725639 L78.2311179,101.725639 L163.281005,54.0305574 C164.991231,53.0451148 165.828041,51.3112131 165.80307,49.5790164 L165.80307,49.5790164 C165.797395,49.0828852 165.80307,41.6281311 165.80307,41.1149508 L165.80307,41.1149508 C165.816123,39.4032131 164.984421,37.6880656 163.290369,36.7068852 L163.290369,36.7068852 L103.229015,2.11580328 C100.886287,0.756983607 98.2600821,0.0775737705 95.6338769,0.0775737705 L95.6338769,0.0775737705 C93.0212923,0.0775737705 90.4078564,0.751016393 88.073641,2.09704918"/>
    <linearGradient id="login-bg-D" x1="1.398%" x2="132.068%" y1="50%" y2="50%">
      <stop offset="0%" stop-color="#11C1E8"/>
      <stop offset="100%" stop-color="#7C1DDB"/>
    </linearGradient>
    <path id="login-bg-F" d="M52.8424658,41.4059744 L0.0196917808,9.736375 L0.0282534247,11.8708451 C0.0282534247,13.3661752 0.827910959,14.7654199 2.12671233,15.5135139 L2.12671233,15.5135139 L49.2363014,42.9544947 C51.4957192,44.2730962 54.3039384,44.2765278 56.5736301,42.9665053 L56.5736301,42.9665053 L123.21661,4.49542735 C124.192637,3.93435684 124.785103,2.89972222 124.785103,1.77500748 L124.785103,1.77500748 L124.439212,0.112385684 L52.8424658,41.4059744 Z"/>
    <linearGradient id="login-bg-G" x1="100%" x2="0%" y1="50%" y2="50%">
      <stop offset="0%" stop-color="#11C1E8"/>
      <stop offset="100%" stop-color="#7C1DDB"/>
    </linearGradient>
    <path id="login-bg-I" d="M0.0196917808,42.9946517 L49.807363,74.7395955 C51.697774,75.9308315 54.1035959,75.9726742 56.0316781,74.8625618 L56.0316781,74.8625618 L123.690068,36.048764 C125.120719,35.2204494 125.152397,33.1838202 123.76113,32.3145169 L123.76113,32.3145169 L73.9717466,0.565303371 L0.0196917808,42.9946517 Z"/>
    <linearGradient id="login-bg-J" x1="100%" x2="0%" y1="50%" y2="50%">
      <stop offset="0%" stop-color="#C8F9FF"/>
      <stop offset="100%" stop-color="#42DDFF"/>
    </linearGradient>
    <path id="login-bg-L" d="M69.7437241,0.631047958 L3.15222989,39.1158433 C1.23163218,40.2337013 0.0280689655,42.3016961 0.0280689655,44.5382635 L0.0280689655,44.5382635 L0.0280689655,97.8651144 L1.72581609,98.8433466 L3.17604598,42.9206472 L73.6742299,1.14953656 L72.8568276,0.658292023 C72.3728506,0.372229345 71.8284828,0.229198006 71.2824138,0.229198006 L71.2824138,0.229198006 C70.7525057,0.229198006 70.2217471,0.363715575 69.7437241,0.631047958"/>
    <linearGradient id="login-bg-M" x1="100%" x2="0%" y1="50%" y2="50%">
      <stop offset="0%" stop-color="#11C1E8"/>
      <stop offset="100%" stop-color="#7C1DDB"/>
    </linearGradient>
    <path id="login-bg-O" d="M69.792545,0.458148426 L3.1287772,39.1918141 C1.21496054,40.3079625 0.0245361111,42.3821454 0.0245361111,44.6050915 L0.0245361111,44.6050915 L0.0245361111,97.8435862 L72.8967861,55.4894513 L72.8967861,2.24755622 C72.8967861,1.04214993 71.9119574,0.170823088 70.8323685,0.170823088 L70.8323685,0.170823088 C70.4854786,0.170823088 70.129282,0.260931034 69.792545,0.458148426"/>
    <linearGradient id="login-bg-P" x1="99.62%" x2="12.161%" y1="27.074%" y2="66.752%">
      <stop offset="0%" stop-color="#C8F9FF"/>
      <stop offset="100%" stop-color="#42DDFF"/>
    </linearGradient>
    <polygon id="login-bg-R" points=".536 36.925 .536 79.566 63.667 43.206 63.667 .579"/>
    <linearGradient id="login-bg-S" x1="23.792%" x2="84.306%" y1="44.263%" y2="57.511%">
      <stop offset="0%" stop-color="#11C1E8"/>
      <stop offset="100%" stop-color="#7C1DDB"/>
    </linearGradient>
    <path id="login-bg-U" d="M19.12428,0.605924011 L2.13696,10.5993668 C1.22724,11.1355751 0.49476,12.4472629 0.496437116,13.5162368 L0.496437116,13.5162368 L0.57876,43.5869372 C0.5838,44.6662393 1.32048,45.0965831 2.22768,44.5603748 L2.22768,44.5603748 L19.21752,34.566932 C20.12388,34.0281416 20.86476,32.7224787 20.8630829,31.6466193 L20.8630829,31.6466193 L20.77992,1.57419747 C20.77824,0.815071078 20.4036,0.376120445 19.8618,0.376120445 L19.8618,0.376120445 C19.6392,0.376120445 19.38888,0.449278883 19.12428,0.605924011"/>
    <linearGradient id="login-bg-V" x1="61.073%" x2="40.549%" y1="-11.416%" y2="102.408%">
      <stop offset="0%" stop-color="#C8F9FF"/>
      <stop offset="100%" stop-color="#42DDFF"/>
    </linearGradient>
    <path id="login-bg-X" d="M3.08533333,0.0567411592 C-1.19426667,0.231619586 1.02526667,6.18337142 0.981933333,9.82050638 L0.981933333,9.82050638 C0.9516,12.6782553 2.46393333,27.2007315 2.46393333,27.2007315 L2.46393333,27.2007315 L1.52186667,45.0458979 C1.52186667,45.0458979 2.50293333,48.4762055 5.21473333,48.501458 L5.21473333,48.501458 C6.59793333,48.5115175 9.2872,45.9429906 9.2872,45.9429906 L9.2872,45.9429906 C9.2872,45.9429906 9.3444,45.613412 9.44493333,45.0332865 L9.44493333,45.0332865 C10.0108667,41.7534752 12.5692667,30.5696635 12.7044667,26.4465683 L12.7044667,26.4465683 C12.8500667,21.9131814 10.9962667,9.90878636 10.9962667,9.90878636 L10.9962667,9.90878636 C10.9962667,9.90878636 10.1876667,0.0516965892 3.37306667,0.0508558276 L3.37306667,0.0508558276 C3.27773333,0.0508558276 3.1824,0.0525373509 3.08533333,0.0567411592"/>
    <linearGradient id="login-bg-Y" x1="50.525%" x2="49.392%" y1="93.459%" y2="-4.152%">
      <stop offset="0%" stop-color="#C8F9FF"/>
      <stop offset="100%" stop-color="#42DDFF"/>
    </linearGradient>
    <path id="login-bg-aa" d="M10.5915333,3.17753731 L3.04286667,9.86270149 C1.1492,11.7709254 0.4238,13.8960896 0.4238,20.6212388 L0.4238,20.6212388 L1.07206667,51.2421493 C1.07206667,52.4059701 0.9776,55.8931791 4.8438,56.3253582 L4.8438,56.3253582 C6.77126667,56.544 10.3601333,57.7316418 14.6882667,56.3108955 L14.6882667,56.3108955 C16.4571333,55.739194 25.7426,51.5390597 25.7426,49.0778507 L25.7426,49.0778507 L25.8154,14.524791 C25.519,2.83979104 18.7434,0.381985075 18.7434,0.381985075 L18.7434,0.381985075 L10.5915333,3.17753731 Z"/>
    <linearGradient id="login-bg-ab" x1="0%" x2="99.999%" y1="50%" y2="50%">
      <stop offset="0%" stop-color="#C8F9FF"/>
      <stop offset="100%" stop-color="#42DDFF"/>
    </linearGradient>
    <path id="login-bg-ad" d="M11.2475499,0.6655 C9.85886445,1.01383333 7.07805627,2.34116667 7.07805627,2.34116667 L7.07805627,2.34116667 C3.68110486,3.94258333 1.39785166,6.01333333 0.849595908,8.12716667 L0.849595908,8.12716667 L0.147519182,10.5865833 C0.147519182,10.5865833 0.378680307,10.3785 3.38635294,8.19408333 L3.38635294,8.19408333 C7.62717136,5.11133333 13.330578,3.43475 13.330578,3.43475 L13.330578,3.43475 C13.330578,3.43475 13.5858005,3.39533333 13.3692481,2.8105 L13.3692481,2.8105 C13.1054322,2.10008333 13.1062916,2.06066667 12.8897391,1.32825 L12.8897391,1.32825 C12.7350588,0.798416667 12.5434271,0.542666667 12.0338414,0.542666667 L12.0338414,0.542666667 C11.8293197,0.542666667 11.5732379,0.583916667 11.2475499,0.6655"/>
    <linearGradient id="login-bg-ae" x1=".003%" x2="99.996%" y1="49.999%" y2="49.999%">
      <stop offset="0%" stop-color="#C8F9FF"/>
      <stop offset="100%" stop-color="#42DDFF"/>
    </linearGradient>
    <path id="login-bg-ag" d="M30.4331026,2.49426667 C28.0451538,5.0258 22.5949615,11.1548667 19.5370128,14.1882 L19.5370128,14.1882 C18.4066026,15.3096667 16.8260897,15.8790667 15.2593205,15.6823333 L15.2593205,15.6823333 L3.14778205,14.8806667 C3.14778205,14.8806667 2.05602564,14.4438667 1.06133333,15.4353333 L1.06133333,15.4353333 C0.527910256,15.9700667 0.227269231,17.5777333 0.185179487,18.5284667 L0.185179487,18.5284667 C0.0778076923,21.0712667 0.844012821,22.5116667 0.844012821,22.5116667 L0.844012821,22.5116667 C0.844012821,22.5116667 13.7793077,24.9799333 15.5264615,25.2737333 L15.5264615,25.2737333 C18.056141,25.6966667 19.2552692,25.3864 21.5942564,24.4608 L21.5942564,24.4608 C25.9045897,22.7612667 35.0354872,14.4360667 35.0354872,14.4360667 L35.0354872,14.4360667 C35.0354872,14.4360667 41.6135128,9.1312 39.5270641,3.7128 L39.5270641,3.7128 C38.6947179,1.5418 36.8367564,0.568533333 34.9023462,0.568533333 L34.9023462,0.568533333 C33.2780256,0.568533333 31.6004487,1.25493333 30.4331026,2.49426667"/>
    <linearGradient id="login-bg-ah" x1="12.667%" x2="94.219%" y1="66.398%" y2="37.402%">
      <stop offset="0%" stop-color="#C8F9FF"/>
      <stop offset="100%" stop-color="#42DDFF"/>
    </linearGradient>
    <filter id="login-bg-aj" width="132.9%" height="127%" x="-16.4%" y="-13.5%" filterUnits="objectBoundingBox">
      <feOffset dy="2" in="SourceAlpha" result="shadowOffsetOuter1"/>
      <feGaussianBlur in="shadowOffsetOuter1" result="shadowBlurOuter1" stdDeviation="2"/>
      <feColorMatrix in="shadowBlurOuter1" result="shadowMatrixOuter1" values="0 0 0 0 0.321568627   0 0 0 0 0.537254902   0 0 0 0 1  0 0 0 0.6 0"/>
      <feMerge>
        <feMergeNode in="shadowMatrixOuter1"/>
        <feMergeNode in="SourceGraphic"/>
      </feMerge>
    </filter>
    <radialGradient id="login-bg-ak" cx="50%" cy="45.137%" r="62.421%" fx="50%" fy="45.137%" gradientTransform="matrix(0 .80282 -1 0 .951 .05)">
      <stop offset="0%" stop-color="#88A8F6"/>
      <stop offset="100%" stop-color="#1747E8"/>
    </radialGradient>
  </defs>
  <g fill="none" fill-rule="evenodd" transform="translate(10 2)">
    <g filter="url(#login-bg-a)">
      <g transform="translate(145 14)">
        <mask id="login-bg-d" fill="#fff">
          <use xlink:href="#login-bg-b"/>
        </mask>
        <path fill="url(#login-bg-c)" d="M0.3049375,1.28828571 L26.9891042,16.8471429 C32.2183125,15.0788571 36.8888958,15.3994286 40.5156875,17.5097143 L40.5156875,17.5097143 L13.8400625,1.95 C11.7968958,0.759428571 9.424875,0.138857143 6.8085625,0.138857143 L6.8085625,0.138857143 C4.77479167,0.138857143 2.59239583,0.514285714 0.3049375,1.28828571" mask="url(#login-bg-d)"/>
      </g>
      <g transform="translate(88)">
        <mask id="login-bg-g" fill="#fff">
          <use xlink:href="#login-bg-e"/>
        </mask>
        <path fill="url(#login-bg-f)" d="M28.8298645,4.4258565 C15.3368,12.2071298 3.96487097,29.0168073 0.230574194,45.2681063 L0.230574194,45.2681063 L25.9484839,61.8093162 C29.6827806,45.5554439 41.0581419,28.7509128 54.5452,20.9670663 L54.5452,20.9670663 C62.883871,16.1560917 70.4356968,15.7066442 75.8844065,18.8776503 L75.8844065,18.8776503 C66.9502387,13.6858462 59.0998065,7.52309833 50.1656387,2.33043646 L50.1656387,2.33043646 C47.8788968,1.00267951 45.2197548,0.310495718 42.2894645,0.310495718 L42.2894645,0.310495718 C38.2368258,0.30963841 33.6650581,1.63310674 28.8298645,4.4258565" mask="url(#login-bg-g)"/>
      </g>
      <g transform="translate(69 45)">
        <mask id="login-bg-j" fill="#fff">
          <use xlink:href="#login-bg-h"/>
        </mask>
        <path fill="url(#login-bg-i)" d="M0.319245283,30.482978 L25.770566,46.7949168 C27.0543396,35.1605668 35.1229245,22.1240396 44.9617925,16.3639496 L44.9617925,16.3639496 L19.5138679,0.0545479082 C9.67245283,5.81463788 1.60301887,18.8545479 0.319245283,30.482978" mask="url(#login-bg-j)"/>
      </g>
      <g transform="translate(51 75)">
        <mask id="login-bg-m" fill="#fff">
          <use xlink:href="#login-bg-k"/>
        </mask>
        <path fill="url(#login-bg-l)" d="M0.0667639558,32.8622536 C0.0871538462,38.9812576 2.21269231,43.2896059 5.65146154,45.3146925 L5.65146154,45.3146925 L30.3227692,61.4038817 C27.2943846,59.2278356 25.4463846,55.1013248 25.4311538,49.4026057 L25.4311538,49.4026057 C25.3964615,37.4965371 33.3723077,23.1193653 43.4516923,16.5792188 L43.4516923,16.5792188 L18.0873846,0.0354357792 C8.01392308,6.5807286 0.0372307692,20.956185 0.0667639558,32.8622536 M31.0123846,61.8533292 L30.3227692,61.4038817 C30.547,61.5642761 30.7763077,61.7135201 31.0123846,61.8533292" mask="url(#login-bg-m)"/>
      </g>
      <g transform="translate(77 16)">
        <mask id="login-bg-p" fill="#fff">
          <use xlink:href="#login-bg-n"/>
        </mask>
        <path fill="url(#login-bg-o)" d="M65.435854,4.613125 C52.1271825,12.3016667 40.9022774,28.9004444 37.2173723,44.9553056 L37.2173723,44.9553056 C27.405635,50.7257361 19.3592993,63.7856667 18.0790657,75.4409028 L18.0790657,75.4409028 C7.9929927,81.9009722 0.0118540146,96.1021111 0.0464565232,107.862403 L0.0464565232,107.862403 C0.0812846715,120.033597 8.68221898,124.935625 19.267854,118.823764 L19.267854,118.823764 C28.7713869,113.335458 77.9841752,84.9001389 89.2124672,78.4180417 L89.2124672,78.4180417 C103.853022,69.9585278 115.679095,49.463375 115.630138,32.6256806 L115.630138,32.6256806 C115.59019,17.9348472 106.523562,10.9062917 94.4908905,14.9577083 L94.4908905,14.9577083 C92.6061022,5.73230556 86.6824818,0.549 78.7191241,0.549 L78.7191241,0.549 C74.7209343,0.549 70.2087883,1.85541667 65.435854,4.613125" mask="url(#login-bg-p)"/>
      </g>
      <g transform="translate(77 17)">
        <mask id="login-bg-s" fill="#fff">
          <use xlink:href="#login-bg-q"/>
        </mask>
        <path fill="url(#login-bg-r)" d="M65.9768739,4.12933803 C52.9233043,11.6765 41.5984645,27.8811268 37.7979828,44.4504577 L37.7979828,44.4504577 L37.7588289,44.6166197 L37.6132785,44.7035352 C28.0367454,50.3385563 19.8476223,63.3920704 18.5657577,75.0677183 L18.5657577,75.0677183 L18.5461807,75.254331 L18.3870116,75.3574366 C8.28956143,81.8275282 0.406008913,96.0041268 0.441637026,107.631204 L0.441637026,107.631204 C0.46388859,115.820859 4.4039625,120.90712 10.7239126,120.90712 L10.7239126,120.90712 C13.3514797,120.90712 16.1935421,120.035408 19.1709408,118.314993 L19.1709408,118.314993 L42.7398858,104.69312 C60.5395889,94.4038592 82.4419398,81.7448732 89.4853858,77.6777394 L89.4853858,77.6777394 C104.06766,69.2460845 115.892137,48.7382887 115.844615,31.9627465 L115.844615,31.9627465 C115.81383,20.5427324 110.301641,13.4488944 101.463074,13.4488944 L101.463074,13.4488944 C99.454309,13.4488944 97.3170168,13.8246761 95.1141844,14.5668662 L95.1141844,14.5668662 L94.6894497,14.7083169 L94.601779,14.270331 C92.7615458,5.26264789 87.1225331,0.0954366197 79.1317329,0.0954366197 L79.1317329,0.0954366197 C75.0350434,0.0954366197 70.6098016,1.45285211 65.9768739,4.12933803" mask="url(#login-bg-s)"/>
      </g>
      <g transform="translate(51 132)">
        <mask id="login-bg-v" fill="#fff">
          <use xlink:href="#login-bg-t"/>
        </mask>
        <path fill="url(#login-bg-u)" d="M102.203873,3.25311765 L3.41607419,58.7471765 C1.20700736,60.0214706 0.081601535,62.2433824 0.0517838184,64.4849118 L0.0517838184,64.4849118 C0.0398567317,65.2167353 0.0517838184,75.3803824 0.0517838184,76.0823529 L0.0517838184,76.0823529 C0.0517838184,78.3443529 1.16355868,80.6037941 3.40073937,81.9045294 L3.40073937,81.9045294 L57.638314,113.263765 C63.8719207,116.871706 71.6023767,116.881941 77.8376872,113.283382 L77.8376872,113.283382 L176.622931,57.7782353 C178.901004,56.4655588 180.016187,54.1540882 179.984498,51.8477353 L179.984498,51.8477353 C179.975294,51.185 179.980406,41.1851176 179.984498,40.5027647 L179.984498,40.5027647 C180.001704,38.2211471 178.890781,35.9352647 176.634006,34.6277059 L176.634006,34.6277059 L122.401543,3.27870588 C119.280906,1.46791176 115.781158,0.561235294 112.280558,0.561235294 L112.280558,0.561235294 C108.797848,0.561235294 105.314287,1.45852941 102.203873,3.25311765" mask="url(#login-bg-v)"/>
      </g>
      <path fill="#FFF" d="M118.210529,236 C121.650572,236 125.035158,235.098584 127.999124,233.388118 L226.9362,177.730402 C228.850748,176.62202 230,174.631893 230,172.407431 C230.004254,170.184681 228.858426,168.191132 226.940466,167.075053 L172.627541,135.643526 C169.652484,133.913389 166.248275,133 162.794581,133 C159.354537,133 155.971658,133.905692 153.006839,135.618724 L54.0689095,191.267887 C52.1492425,192.373704 51.0025615,194.363831 51,196.588292 C51,198.811043 52.1415639,200.805447 54.062084,201.91896 L108.375008,233.355619 C111.353478,235.085756 114.755128,236 118.210529,236"/>
      <g transform="translate(91 106)">
        <mask id="login-bg-y" fill="#fff">
          <use xlink:href="#login-bg-w"/>
        </mask>
        <path fill="url(#login-bg-x)" d="M8.15432692,0.834 L1.71846154,4.44857143 C0.776057692,4.98514286 0.0119230769,6.29742857 0.0162317143,7.36885714 L0.0162317143,7.36885714 L0.0240384615,16.326 C0.0275,17.4008571 0.798557692,17.8345714 1.74096154,17.2937143 L1.74096154,17.2937143 L8.17509615,13.6782857 C9.11923077,13.1408571 9.88423077,11.8328571 9.87992211,10.7562857 L9.87992211,10.7562857 L9.86951923,1.8 C9.86778846,1.04057143 9.48096154,0.601714286 8.92019231,0.601714286 L8.92019231,0.601714286 C8.68913462,0.601714286 8.42951923,0.676285714 8.15432692,0.834" mask="url(#login-bg-y)"/>
      </g>
      <g transform="translate(0 182)">
        <mask id="login-bg-B" fill="#fff">
          <use xlink:href="#login-bg-z"/>
        </mask>
        <path fill="url(#login-bg-A)" d="M58.3593064,1.61632681 L1.92611699,33.2386306 C0.663270443,33.9654534 0.0212314482,35.2291243 0.00254777379,36.5072129 L0.00254777379,36.5072129 C0,36.616618 0,37.1314154 0,37.8387319 L0,37.8387319 L0,39.1897572 C0,41.12258 0.00254777379,43.4234787 0.00254777379,43.660099 L0.00254777379,43.660099 C0.00254777379,44.9475167 0.638641963,46.2366306 1.91677515,46.9753268 L1.91677515,46.9753268 L32.9002522,64.8431243 C36.46204,66.9014661 40.8764827,66.9065547 44.4416675,64.8583901 L44.4416675,64.8583901 L100.87146,33.2301496 C102.173372,32.4829724 102.810316,31.1641749 102.791219,29.8504661 L102.791219,29.8504661 C102.786537,29.473061 102.789934,23.2318838 102.791219,22.8417572 L102.791219,22.8417572 C102.801823,21.5424661 102.166578,20.2406306 100.878254,19.4943015 L100.878254,19.4943015 L69.8973247,1.63159264 C68.113883,0.599453395 66.1138806,0.0838078251 64.1147274,0.0838078251 L64.1147274,0.0838078251 C62.1249161,0.0838078251 60.1351048,0.594364787 58.3593064,1.61632681" mask="url(#login-bg-B)"/>
      </g>
      <path fill="#FFF" d="M38.2993099,241 C40.2599182,241 42.1891365,240.483663 43.8757178,239.503992 L100.253176,207.621919 C101.345043,206.988467 101.998296,205.846371 102,204.574337 C102.002538,203.299738 101.349284,202.156787 100.25657,201.519061 L69.3084815,183.514815 C67.6108713,182.524885 65.6731692,182 63.7049254,182 C61.7443171,182 59.8159472,182.518901 58.1268208,183.499428 L1.74851394,215.376371 C0.654950911,216.010679 0,217.150209 0,218.424808 C0,219.696843 0.650709007,220.838938 1.74512042,221.476665 L32.6949054,239.48433 C34.3916673,240.477679 36.3293693,241 38.2993099,241"/>
      <g transform="translate(170 97)">
        <mask id="login-bg-E" fill="#fff">
          <use xlink:href="#login-bg-C"/>
        </mask>
        <path fill="url(#login-bg-D)" d="M88.073641,2.09704918 L3.0212,49.7836066 C1.36375385,50.7400656 0.520984615,52.406623 0.498,54.0876721 L0.498,54.0876721 C0.486933333,54.6375082 0.498,62.2141639 0.498,62.7426885 L0.498,62.7426885 C0.498,64.437377 1.33055385,66.1363279 3.01013333,67.1089836 L3.01013333,67.1089836 L63.0765949,101.707738 C67.7526872,104.416852 73.5507692,104.425377 78.2311179,101.725639 L78.2311179,101.725639 L163.281005,54.0305574 C164.991231,53.0451148 165.828041,51.3112131 165.80307,49.5790164 L165.80307,49.5790164 C165.797395,49.0828852 165.80307,41.6281311 165.80307,41.1149508 L165.80307,41.1149508 C165.816123,39.4032131 164.984421,37.6880656 163.290369,36.7068852 L163.290369,36.7068852 L103.229015,2.11580328 C100.886287,0.756983607 98.2600821,0.0775737705 95.6338769,0.0775737705 L95.6338769,0.0775737705 C93.0212923,0.0775737705 90.4078564,0.751016393 88.073641,2.09704918" mask="url(#login-bg-E)"/>
      </g>
      <path fill="#FFF" d="M240.550233,192 C243.12145,192 245.651059,191.326238 247.863936,190.049323 L332.706454,142.450424 C334.138116,141.623534 334.995754,140.136494 335,138.476759 C335,136.815324 334.14406,135.326582 332.709851,134.493737 L272.799985,99.9761982 C270.572673,98.6839705 268.032025,98 265.450619,98 C262.880251,98 260.353189,98.6771648 258.136916,99.9557812 L173.292699,147.547875 C171.85849,148.375615 171,149.860104 171,151.521539 C170.998304,153.180423 171.853395,154.670015 173.288454,155.50286 L233.201715,190.024652 C235.425631,191.318582 237.968826,192 240.550233,192"/>
      <g transform="translate(189 135)">
        <mask id="login-bg-H" fill="#fff">
          <use xlink:href="#login-bg-F"/>
        </mask>
        <path fill="url(#login-bg-G)" d="M52.8424658,41.4059744 L0.0196917808,9.736375 L0.0282534247,11.8708451 C0.0282534247,13.3661752 0.827910959,14.7654199 2.12671233,15.5135139 L2.12671233,15.5135139 L49.2363014,42.9544947 C51.4957192,44.2730962 54.3039384,44.2765278 56.5736301,42.9665053 L56.5736301,42.9665053 L123.21661,4.49542735 C124.192637,3.93435684 124.785103,2.89972222 124.785103,1.77500748 L124.785103,1.77500748 L124.439212,0.112385684 L52.8424658,41.4059744 Z" mask="url(#login-bg-H)"/>
      </g>
      <g transform="translate(189 102)">
        <mask id="login-bg-K" fill="#fff">
          <use xlink:href="#login-bg-I"/>
        </mask>
        <path fill="url(#login-bg-J)" d="M0.0196917808,42.9946517 L49.807363,74.7395955 C51.697774,75.9308315 54.1035959,75.9726742 56.0316781,74.8625618 L56.0316781,74.8625618 L123.690068,36.048764 C125.120719,35.2204494 125.152397,33.1838202 123.76113,32.3145169 L123.76113,32.3145169 L73.9717466,0.565303371 L0.0196917808,42.9946517 Z" mask="url(#login-bg-K)"/>
      </g>
      <g transform="translate(190 47)">
        <mask id="login-bg-N" fill="#fff">
          <use xlink:href="#login-bg-L"/>
        </mask>
        <path fill="url(#login-bg-M)" d="M69.7437241,0.631047958 L3.15222989,39.1158433 C1.23163218,40.2337013 0.0280689655,42.3016961 0.0280689655,44.5382635 L0.0280689655,44.5382635 L0.0280689655,97.8651144 L1.72581609,98.8433466 L3.17604598,42.9206472 L73.6742299,1.14953656 L72.8568276,0.658292023 C72.3728506,0.372229345 71.8284828,0.229198006 71.2824138,0.229198006 L71.2824138,0.229198006 C70.7525057,0.229198006 70.2217471,0.363715575 69.7437241,0.631047958" mask="url(#login-bg-N)"/>
      </g>
      <g transform="translate(191 48)">
        <mask id="login-bg-Q" fill="#fff">
          <use xlink:href="#login-bg-O"/>
        </mask>
        <path fill="url(#login-bg-P)" d="M69.792545,0.458148426 L3.1287772,39.1918141 C1.21496054,40.3079625 0.0245361111,42.3821454 0.0245361111,44.6050915 L0.0245361111,44.6050915 L0.0245361111,97.8435862 L72.8967861,55.4894513 L72.8967861,2.24755622 C72.8967861,1.04214993 71.9119574,0.170823088 70.8323685,0.170823088 L70.8323685,0.170823088 C70.4854786,0.170823088 70.129282,0.260931034 69.792545,0.458148426" mask="url(#login-bg-Q)"/>
      </g>
      <path fill="#111314" d="M.989633028 38.1602275C.336348624 38.5462415.159100917 39.7995002.888348624 40.5312112L23.7777798 55.3953231C25.7156881 56.6014023 27.369156 55.507696 29.1500734 54.4671739L90.8238349 18.3722928C92.1987706 17.5599478 91.793633 16.3075469 90.8238349 15.7405352L68.2804587 1.27702005C67.0304404.53844662 65.5829174.229635431 64.6662936.759761305L.989633028 38.1602275zM55.3310789 42.4466984C53.3020147 43.6390527 53.3020147 45.5579711 55.3049138 46.7494676L64.3968771 52.1176354C66.4082165 53.2962648 69.6788587 53.3057007 71.7037028 52.1142042L86.0084367 43.7222601C88.0290606 42.5419152 88.0366569 40.6049828 86.0312257 39.4220643L76.9417945 34.0521809C74.930455 32.8692625 71.6555927 32.8692625 69.6324367 34.0521809L55.3310789 42.4466984z" transform="translate(198 106)"/>
      <g transform="translate(197 56)">
        <mask id="login-bg-T" fill="#fff">
          <use xlink:href="#login-bg-R"/>
        </mask>
        <polygon fill="url(#login-bg-S)" points=".536 36.925 .536 79.566 63.667 43.206 63.667 .579" mask="url(#login-bg-T)"/>
      </g>
      <g transform="translate(220 72)">
        <mask id="login-bg-W" fill="#fff">
          <use xlink:href="#login-bg-U"/>
        </mask>
        <path fill="url(#login-bg-V)" d="M19.12428,0.605924011 L2.13696,10.5993668 C1.22724,11.1355751 0.49476,12.4472629 0.496437116,13.5162368 L0.496437116,13.5162368 L0.57876,43.5869372 C0.5838,44.6662393 1.32048,45.0965831 2.22768,44.5603748 L2.22768,44.5603748 L19.21752,34.566932 C20.12388,34.0281416 20.86476,32.7224787 20.8630829,31.6466193 L20.8630829,31.6466193 L20.77992,1.57419747 C20.77824,0.815071078 20.4036,0.376120445 19.8618,0.376120445 L19.8618,0.376120445 C19.6392,0.376120445 19.38888,0.449278883 19.12428,0.605924011" mask="url(#login-bg-W)"/>
      </g>
      <g transform="translate(125 86)">
        <path fill="#FFF" d="M111.642085 18.4412566C111.541059 18.4992823 111.443429 18.618747 111.382304 18.7595447 111.032532 19.5608117 110.107165 21.4790737 108.7726 22.4962305 108.639313 22.6011887 108.498386 22.6950539 108.358307 22.7761192 107.526326 23.259098 106.662085 23.3102972 105.780015 22.9297167 105.72738 22.9066771 105.656067 22.9186236 105.590697 22.9578763 105.51514 23.0031022 105.437035 23.0807543 105.380155 23.1814459 105.274884 23.3760028 105.283373 23.5790928 105.40053 23.630292 106.392116 24.0603649 107.382852 23.993806 108.357458 23.4272019 108.52725 23.3299235 108.699589 23.2130188 108.865986 23.0850209 110.478161 21.8528276 111.52408 19.6248106 111.885737 18.7638113 111.968086 18.5709611 111.911206 18.4096838 111.779617 18.4019662 111.73632 18.4011506 111.687929 18.4148037 111.642085 18.4412566M102.93863 19.5050046C102.898729 19.5271909 102.857979 19.5587637 102.819776 19.5946031 102.651682 19.7601471 102.555749 20.0144363 102.591406 20.1961933 102.753557 21.0025801 103.190772 22.4250636 104.360639 23.2126774 104.413274 23.2510768 104.485436 23.2399837 104.556748 23.1998776 104.628061 23.1589183 104.701072 23.0855328 104.754556 22.9899611 104.864072 22.7979642 104.85728 22.5923142 104.750311 22.5214887 104.31904 22.2228269 103.994737 21.8320066 103.754481 21.419 103.738351 21.3899872 103.76382 21.3345214 103.791835 21.317455 103.799476 21.3140417 103.807117 21.3131884 103.814757 21.317455 104.611931 21.8900323 105.441365 21.9540313 105.854809 21.9454981 105.887918 21.9454981 105.925272 21.9326983 105.961778 21.9122186 106.068747 21.8507796 106.169773 21.7116886 106.208825 21.563211L106.258065 21.3831606C106.255518 21.3012419 106.232596 21.2116434 106.169773 21.21335 105.710485 21.234683 104.203581 21.1664175 103.269725 19.5485239 103.203506 19.4410056 103.077011 19.4282058 102.93863 19.5050046M111.328734 1.09318751C111.224312 1.15547982 111.127531 1.29201093 111.091874 1.43707523 111.044332 1.63931193 111.118192 1.778403 111.254026 1.7963227 111.624172 1.84154863 112.313528 2.09583782 112.800831 3.34083085 113.434155 4.95275123 113.811943 8.57509215 112.061387 16.6730934 112.01809 16.8727702 112.09959 17.0093013 112.250705 16.9734619 112.277023 16.9674886 112.305038 16.9555421 112.331356 16.9401824 112.452757 16.8685036 112.56482 16.7097862 112.599628 16.5450955 115.685598 2.2750349 112.440872 1.10342734 111.443344 1.06332133 111.406838 1.05990805 111.368635 1.07270784 111.328734 1.09318751M108.151755 6.61936938C107.970927 6.72091439 107.781609 6.86597869 107.582952 7.05029569 107.175451 7.42234295 106.872372 7.89678855 106.679658 8.45571277 106.096423 10.1444319 106.698335 12.2060516 106.979341 13.0064652 107.022638 13.12081 107.130456 13.1455563 107.248462 13.078144 107.279024 13.0585177 107.310436 13.0337714 107.341847 13.0021986 107.490415 12.8545744 107.56003 12.6216182 107.506546 12.4791138 107.084612 11.2964131 106.77644 9.62988028 107.178847 8.45912604 107.303644 8.10073189 107.489566 7.81401657 107.742556 7.58191368 107.88688 7.44708922 108.021864 7.34469089 108.14751 7.27130542 108.36824 7.14416082 108.551616 7.11600128 108.710371 7.18170688 109.533862 7.53498112 109.447269 10.3680016 109.313133 11.795605 109.293607 11.9884552 109.399727 12.0925601 109.554238 12.0285612 109.566972 12.0234412 109.579706 12.017468 109.594139 12.0080815 109.735066 11.9278695 109.852223 11.7392859 109.870051 11.5635021 109.982113 10.3808014 110.208786 6.96069715 109.077971 6.47857168 108.813095 6.36764015 108.503225 6.41201276 108.151755 6.61936938"/>
        <path fill="#FFF" d="M108.281901,3.45270103 C106.654444,4.39817894 105.443827,5.7105842 104.678914,7.36773051 C103.214458,10.5463453 103.871553,13.9417033 104.880966,15.8838583 C105.88189,17.8132135 106.806408,18.4992823 107.700363,17.9804641 C107.739415,17.9574245 107.777619,17.9335315 107.818369,17.9036654 C108.850704,17.1766372 109.378757,15.1354972 109.561284,14.2753512 C109.602883,14.0756744 109.510346,13.9536498 109.356684,14.0039956 C109.336309,14.0125288 109.315085,14.021062 109.29471,14.0330085 C109.167366,14.1072473 109.051059,14.2753512 109.012007,14.4460151 C108.826084,15.3018944 108.376984,16.8600557 107.758092,17.2943953 C107.741962,17.3046351 107.722436,17.3165816 107.703759,17.3268214 C107.314935,17.5538044 106.538986,17.5290581 105.391191,15.3189608 C104.369892,13.3554729 103.896173,10.1708848 105.133108,7.48890187 C105.787656,6.07239164 106.84546,4.93662349 108.287844,4.10037046 C108.605355,3.91690679 108.939845,3.74453627 109.293012,3.59093877 C110.436562,3.09089359 111.114881,4.05429121 111.482481,4.94942328 C112.644707,7.77391055 112.37304,14.3615365 110.304973,18.2987522 C109.688628,19.4677998 108.970408,20.2903998 108.1605,20.7631387 C108.014478,20.846764 107.866759,20.9192962 107.714795,20.9815885 C107.698665,20.9892684 107.679988,20.9969482 107.663858,21.0063348 C107.52293,21.0865468 107.399831,21.2589173 107.366722,21.4364077 C107.329368,21.6309646 107.421055,21.7546959 107.574717,21.6949635 C107.773374,21.6181648 107.966937,21.5242996 108.157953,21.4133681 C109.130012,20.849324 110.00529,19.8526469 110.724359,18.4822159 C112.958823,14.2386585 113.247469,7.43428942 112.007987,4.41353869 C111.400981,2.93558946 110.485802,2.41762457 109.360929,2.90742992 C108.982293,3.07212057 108.620636,3.25643756 108.281901,3.45270103"/>
        <path fill="#FFF" d="M107.949448,1.04693759 C107.384041,1.37717221 106.78043,1.81407175 106.164085,2.38920904 C104.580774,3.87398482 103.289506,5.96291075 102.325087,8.60308103 C102.253774,8.7993445 102.310654,8.96062187 102.449035,8.96062187 C102.488936,8.96062187 102.531384,8.94696876 102.576379,8.92222249 C102.678254,8.86334345 102.777583,8.7421721 102.830218,8.60052107 C103.720777,6.16941405 104.898285,4.2596852 106.332179,2.91229384 C106.878909,2.39774223 107.42564,2.00606862 107.938412,1.70826014 C109.233925,0.955632415 110.335026,0.798621642 110.816387,0.767048824 C110.86223,0.766195505 110.904679,0.749982436 110.951371,0.723529534 C111.055793,0.661237216 111.157669,0.543479137 111.212851,0.399268155 C111.285013,0.200444731 111.236622,0.0323408059 111.096544,0.0348719053 C110.59311,0.0605003467 109.391831,0.211537883 107.949448,1.04693759"/>
        <path fill="#FFF" d="M106.951241.634016327C106.93511.64340284 106.91898.653642673 106.907095.666442465 105.991067 1.40456376 103.022253 4.05070727 101.735229 8.16029358 101.660521 8.41031617 101.590906 8.604873 101.528083 8.7584705 101.508557 8.80540306 101.479692 8.83697588 101.450828 8.85404227 101.393098 8.88646841 101.340463 8.86257547 101.35065 8.77468357 101.360838 8.69020494 101.377817 8.58951325 101.404135 8.47687509 101.535724 7.84285876 102.165652 5.5900955 104.713382 2.64273023 104.850913 2.48230618 104.912038 2.25617654 104.845819 2.12988526 104.798278 2.04199336 104.6981 2.03175353 104.594527 2.09319253 104.55123 2.11964543 104.505386 2.15548485 104.464636 2.20327073 101.427057 5.71894673 100.65705 8.73457755 100.781847 9.59301689 100.849764 10.0572226 101.131619 9.97701062 101.21991 9.93946457 101.241134 9.93263801 101.262358 9.91983822 101.283582 9.90703843 101.619771 9.71333492 101.944922 9.11430469 102.253944 8.12701413 103.394097 4.47310038 106.090395 2.00871391 106.964824 1.28509904 107.118486 1.15710113 107.227153.928411526 107.207627.76116092 107.189799.616096619 107.080283.558924218 106.951241.634016327M101.884052 10.6309093C101.767744 10.6966149 101.659927 10.8408259 101.622572 10.9952767 100.68532 14.7720684 101.645494 17.9387368 101.965552 18.8347222 102.002906 18.9388271 102.108177 18.9558935 102.22024 18.8927479 102.254199 18.8722682 102.288157 18.8466686 102.322964 18.8082693 102.467288 18.663205 102.541996 18.4353687 102.491907 18.2954243 102.190527 17.4267451 101.296572 14.3957546 102.150626 10.9176246 102.201563 10.7213612 102.126855 10.5728836 101.98338 10.5942166 101.949422 10.5976298 101.912917 10.6112829 101.884052 10.6309093"/>
        <path fill="#FFF" d="M108.442779,2.0215137 C105.932404,3.47812994 104.557088,5.64129467 103.821889,7.30441421 C101.898994,11.6776762 102.447422,16.8428187 104.086764,19.3157383 C105.074954,20.8039274 106.344149,21.193041 107.670225,20.4224936 C107.70673,20.4037206 107.742387,20.3823876 107.776345,20.3610546 C108.976775,19.6092802 109.951381,18.230316 110.599987,16.3675197 C112.030485,12.2417204 111.516864,7.0620715 110.140699,5.51926999 C109.64236,4.96205241 109.037051,4.86904059 108.386747,5.2470611 C108.333263,5.27692727 108.284872,5.30850009 108.233935,5.34263287 C106.799192,6.32480352 105.808455,7.52030402 105.293137,8.90609476 C104.158926,11.9370853 105.754122,14.6924537 105.822039,14.8067985 C106.004565,15.0491412 106.837395,16.0543515 107.647303,15.5858792 C107.722012,15.5423599 107.800965,15.4826275 107.877371,15.409242 C108.441081,14.861411 109.024317,13.5933783 108.574368,8.62023275 C108.561633,8.46236866 108.436836,8.41287613 108.296758,8.4947948 C108.116778,8.62023275 108.000471,8.83697588 108.015752,9.00678645 C108.455513,13.8860669 107.828981,14.7683992 107.698241,14.8963971 C107.677866,14.9160234 107.654944,14.9322365 107.632871,14.944183 C107.291589,15.1412997 106.669301,14.6728274 106.316134,14.2163015 C106.223597,14.0516108 104.824511,11.506159 105.783836,8.9342543 C106.207467,7.80531271 107.047088,6.80351571 108.287419,5.95787617 C108.31968,5.93483655 108.35194,5.9152102 108.386747,5.89729049 C108.849431,5.62764156 109.284098,5.71382682 109.677167,6.152433 C110.959946,7.59198285 111.409046,12.5847548 110.098251,16.3649598 C109.540484,17.9700536 108.750951,19.1007018 107.752574,19.7244783 C107.727105,19.7398381 107.700788,19.7543445 107.675319,19.7722642 C106.576764,20.4071339 105.450194,20.02826 104.58001,18.7167081 C103.05358,16.4212789 102.508547,11.4438667 104.28627,7.4051059 C105.201449,5.32897976 106.590348,3.74521892 108.427498,2.67686301 C108.718691,2.51046572 109.023468,2.35174831 109.338432,2.20753733 C109.515016,2.10855228 109.639813,1.91911537 109.661037,1.74247825 C109.678016,1.55474798 109.576141,1.44552309 109.425875,1.51549528 C109.079499,1.67165274 108.7518,1.8414633 108.442779,2.0215137"/>
        <path fill="#236696" d="M13.0416415,106.091838 C13.0416415,106.091838 12.2682388,107.338537 10.3512867,107.737038 C9.17292996,107.990474 5.27705165,108.470892 5.27705165,108.470892 C3.34142241,108.712382 0.999990208,109.331038 0.633239406,111.238207 C0.633239406,111.238207 0.501650576,112.202458 0.567020511,112.512213 C0.808974165,113.578862 1.8404608,114.002962 3.09946876,114.445835 C3.09946876,114.445835 5.38062479,115.260755 7.33238427,115.626829 C9.85634291,116.093595 11.2554293,116.021916 13.0781468,115.743734 C13.0781468,115.743734 15.3737352,115.346087 16.2982528,115.338407 C17.3288905,115.335847 17.1565516,116.091035 17.2728591,117.060406 L20.5464496,117.917138 C23.8132484,118.339531 25.9797948,115.381073 25.8898051,114.634418 L25.0051885,107.407656 L13.0416415,106.091838 Z"/>
        <path fill="#236696" d="M19.9651666,98.9061203 C19.9651666,98.9061203 19.70114,100.814996 17.8588964,100.97798 C16.7255345,101.078672 15.0895882,101.128164 15.0895882,101.128164 C13.1437715,100.761237 10.7157453,100.797929 10.2700412,102.247719 C10.2700412,102.247719 10.0662908,102.816883 10.0926085,103.125785 C10.1944838,104.198407 9.81924335,103.300715 11.276059,104.609707 C11.276059,104.609707 14.0385755,106.70802 15.7509282,107.509287 C17.8954016,108.529857 19.0066905,108.56143 19.70114,108.488897 C19.70114,108.488897 21.087492,108.220102 21.9534313,108.323353 C22.920397,108.441111 22.6716517,109.668185 22.6716517,110.623903 L25.6328248,111.857802 C28.6508783,112.654803 31.0143835,110.027432 31.0143835,109.294431 L31.0143835,101.627356 L19.9651666,98.9061203 Z"/>
        <path fill="#DBE4EC" d="M29.9379868,59.4043432 C29.8683721,60.7372281 28.0397118,61.519722 26.8333394,61.4557231 C26.4088593,61.4437766 26.03277,63.9260828 25.37143,64.8254815 C24.6693399,65.7769326 23.6947336,65.142063 23.5444676,64.8357213 C23.4341028,64.6053251 24.7211265,61.0085837 25.0106219,60.0955319 C25.9809834,57.0363818 27.225559,56.9903026 28.4361763,57.044915 C29.6391528,57.1072073 30.0025078,58.0688983 29.9379868,59.4043432"/>
      </g>
      <g transform="translate(149 94)">
        <mask id="login-bg-Z" fill="#fff">
          <use xlink:href="#login-bg-X"/>
        </mask>
        <path fill="url(#login-bg-Y)" d="M3.08533333,0.0567411592 C-1.19426667,0.231619586 1.02526667,6.18337142 0.981933333,9.82050638 L0.981933333,9.82050638 C0.9516,12.6782553 2.46393333,27.2007315 2.46393333,27.2007315 L2.46393333,27.2007315 L1.52186667,45.0458979 C1.52186667,45.0458979 2.50293333,48.4762055 5.21473333,48.501458 L5.21473333,48.501458 C6.59793333,48.5115175 9.2872,45.9429906 9.2872,45.9429906 L9.2872,45.9429906 C9.2872,45.9429906 9.3444,45.613412 9.44493333,45.0332865 L9.44493333,45.0332865 C10.0108667,41.7534752 12.5692667,30.5696635 12.7044667,26.4465683 L12.7044667,26.4465683 C12.8500667,21.9131814 10.9962667,9.90878636 10.9962667,9.90878636 L10.9962667,9.90878636 C10.9962667,9.90878636 10.1876667,0.0516965892 3.37306667,0.0508558276 L3.37306667,0.0508558276 C3.27773333,0.0508558276 3.1824,0.0525373509 3.08533333,0.0567411592" mask="url(#login-bg-Z)"/>
      </g>
      <g transform="translate(131 66)">
        <path fill="#DBE4EC" d="M25.3922368,76.9857232 L21.9440476,76.7769939 L20.4353596,80.8416773 L20.4017023,81.5240942 L20.6667535,86.964687 C20.6667535,86.964687 20.5893417,89.5853045 23.3374593,89.7582516 C25.1305514,89.867302 23.5343545,89.769327 23.5343545,89.769327 C25.9955437,89.9201233 26.3472624,87.2517962 26.3472624,87.2517962 L27.3250066,80.2998331 C27.4436486,78.8182811 26.9741294,77.0811423 25.3922368,76.9857232"/>
        <path fill="#B6C7D9" d="M19.2818569,76.9001016 C19.2709857,77.5092503 20.5928757,78.7190282 22.3624077,78.898791 C24.6595176,79.1339309 25.7500138,78.7079528 25.7500138,78.7079528 C26.8119013,78.3407596 27.3983795,77.9258569 27.4900957,77.1599482 C27.4900957,77.1599482 27.8409729,74.3621238 27.907446,73.4752374 C27.957932,72.9010188 27.6811008,72.8993149 27.6811008,72.8993149 C27.6811008,72.8993149 27.6272491,73.3474439 27.5372159,73.5118715 C27.1888629,74.104833 26.1926072,74.8997082 23.9375688,74.9533815 C20.3833591,75.0360212 19.9895688,72.9120943 19.9895688,72.9120943 C19.4712465,72.9095384 19.2995944,73.1370107 19.3172645,73.7410477 L19.2818569,76.9001016 Z"/>
        <path fill="#DBE4EC" d="M26.4489074,77.0731339 C26.4489074,77.0731339 28.0627744,69.4063794 18.6858537,69.4063794 C11.2610558,69.4063794 11.2610558,77.3875058 11.2610558,77.3875058 L15.0104777,123.344583 L24.2889509,123.344583 L26.4489074,77.0731339 Z"/>
        <path fill="#F5F5F5" d="M8.00976164,5.19843941 L1.64348542,5.99075874 L4.30745985,22.5809032 C4.9772399,27.3501544 7.02865166,27.9098897 8.4683422,27.7991354 C11.4470123,27.5776267 14.6166875,25.6079038 16.1952143,24.4722461 C19.2639176,22.2665314 18.7439125,16.6768463 18.7380225,16.2193457 L18.8650788,4.97607882 L8.00976164,5.19843941 Z"/>
        <path fill="#F5F5F5" d="M20.0741327,27.6871031 L18.3592939,17.6902482 L10.0551992,19.6446359 L11.1297082,29.3518257 C11.1297082,30.7371066 5.93975422,42.6789776 5.93975422,46.9736892 L21.6307824,41.8653594 C21.6307824,40.0379132 20.0741327,27.6871031 20.0741327,27.6871031"/>
        <path fill="#526683" d="M8.81913529,65.0055141 L8.81913529,69.4067202 C8.81913529,72.6739725 9.58820435,78.2133922 9.58820435,78.2133922 L24.4302274,78.7790911 C26.2956826,78.4084901 27.0041685,75.820247 27.0041685,73.2175206 L27.0041685,65.0055141 L8.81913529,65.0055141 Z"/>
        <path fill="#DBE4EC" d="M26.4489074,77.0731339 C26.4489074,77.0731339 25.8321376,71.7441474 19.2883192,71.7441474 C18.4199611,71.7441474 19.2883192,71.7313681 16.7118537,71.7441474 C10.4608537,71.7577787 9.58828849,78.2139033 9.58828849,78.2139033 L13.4815954,123.16056 L23.4088128,123.344583 L26.4489074,77.0731339 Z"/>
        <path fill="#236696" d="M2.93567289,3.62853959 C-0.49821202,5.90837457 -0.0968488491,8.89192543 2.50233529,10.8054192 C3.68875473,11.6718587 4.83141969,14.0658559 5.18818696,15.9094892 L5.54495422,17.6517398 C5.57019719,18.2898551 6.48735831,19.1656661 6.87189284,18.1952879 C7.30186471,17.1090437 6.48735831,16.3695456 6.90723299,15.8046986 C7.3304734,15.2296281 8.62627903,14.9348513 10.1257113,18.4150926 L10.9907036,21.1302773 C12.381591,24.1709092 14.9555322,24.1709092 16.7856473,23.6248052 C16.7856473,23.6248052 18.6090309,22.9790224 19.4647675,21.9992727 C19.8863251,21.5204732 22.2801997,16.8125629 22.7253174,15.1861784 C24.939967,6.99973055 20.7513174,-2.88892589 8.62627903,0.801748677 C5.35983913,1.80024143 2.93567289,3.62853959 2.93567289,3.62853959"/>
        <path fill="#09BEEB" d="M9.65476164,73.2559438 L10.0552834,125.802903 C10.0552834,125.802903 13.4428895,128.991775 19.0762783,128.991775 C22.2207105,128.991775 25.2986696,126.935153 25.3786056,126.048266 L27.2507923,72.337535 L9.65476164,73.2559438 Z"/>
        <path fill="#36D7F2" d="M5.40165831,78.6281245 L6.31545371,125.20287 C6.28852788,125.179015 6.21111611,126.344491 5.72645115,126.61371 C5.25020051,126.882928 5.27039488,127.864381 5.51525166,128.518684 C5.83163018,129.385123 8.83806752,134.226791 15.1732107,133.898788 C17.1051391,133.80422 19.372799,133.057907 19.4645151,132.212766 L22.6299831,78.6468675 L5.40165831,78.6281245 Z"/>
      </g>
      <g transform="translate(133 93)">
        <mask id="login-bg-ac" fill="#fff">
          <use xlink:href="#login-bg-aa"/>
        </mask>
        <path fill="url(#login-bg-ab)" d="M10.5915333,3.17753731 L3.04286667,9.86270149 C1.1492,11.7709254 0.4238,13.8960896 0.4238,20.6212388 L0.4238,20.6212388 L1.07206667,51.2421493 C1.07206667,52.4059701 0.9776,55.8931791 4.8438,56.3253582 L4.8438,56.3253582 C6.77126667,56.544 10.3601333,57.7316418 14.6882667,56.3108955 L14.6882667,56.3108955 C16.4571333,55.739194 25.7426,51.5390597 25.7426,49.0778507 L25.7426,49.0778507 L25.8154,14.524791 C25.519,2.83979104 18.7434,0.381985075 18.7434,0.381985075 L18.7434,0.381985075 L10.5915333,3.17753731 Z" mask="url(#login-bg-ac)"/>
      </g>
      <g transform="translate(139 90)">
        <mask id="login-bg-af" fill="#fff">
          <use xlink:href="#login-bg-ad"/>
        </mask>
        <path fill="url(#login-bg-ae)" d="M11.2475499,0.6655 C9.85886445,1.01383333 7.07805627,2.34116667 7.07805627,2.34116667 L7.07805627,2.34116667 C3.68110486,3.94258333 1.39785166,6.01333333 0.849595908,8.12716667 L0.849595908,8.12716667 L0.147519182,10.5865833 C0.147519182,10.5865833 0.378680307,10.3785 3.38635294,8.19408333 L3.38635294,8.19408333 C7.62717136,5.11133333 13.330578,3.43475 13.330578,3.43475 L13.330578,3.43475 C13.330578,3.43475 13.5858005,3.39533333 13.3692481,2.8105 L13.3692481,2.8105 C13.1054322,2.10008333 13.1062916,2.06066667 12.8897391,1.32825 L12.8897391,1.32825 C12.7350588,0.798416667 12.5434271,0.542666667 12.0338414,0.542666667 L12.0338414,0.542666667 C11.8293197,0.542666667 11.5732379,0.583916667 11.2475499,0.6655" mask="url(#login-bg-af)"/>
      </g>
      <path fill="#F5F5F5" d="M107.058166,121.575888 L108,117.169901 L107.540134,116.093191 L101.789678,114 L95.3209472,114.044477 C95.3209472,114.044477 94,114.044477 94,115.086903 C94,115.653056 95.2393443,115.748496 97.9534912,115.653056 C99.236187,115.613212 98.7950213,116.574097 98.7950213,116.574097 C98.4422587,118.794232 98.284153,120.708589 98.7950213,121.663915 C99.5566485,123.097366 100.914147,123.097366 101.386764,122.877762 C101.515118,122.825872 101.508318,122.320875 101.508318,122.320875 C104.182514,123.143696 106.719004,123.546767 107.058166,121.575888"/>
      <g transform="translate(105 101)">
        <mask id="login-bg-ai" fill="#fff">
          <use xlink:href="#login-bg-ag"/>
        </mask>
        <path fill="url(#login-bg-ah)" d="M30.4331026,2.49426667 C28.0451538,5.0258 22.5949615,11.1548667 19.5370128,14.1882 L19.5370128,14.1882 C18.4066026,15.3096667 16.8260897,15.8790667 15.2593205,15.6823333 L15.2593205,15.6823333 L3.14778205,14.8806667 C3.14778205,14.8806667 2.05602564,14.4438667 1.06133333,15.4353333 L1.06133333,15.4353333 C0.527910256,15.9700667 0.227269231,17.5777333 0.185179487,18.5284667 L0.185179487,18.5284667 C0.0778076923,21.0712667 0.844012821,22.5116667 0.844012821,22.5116667 L0.844012821,22.5116667 C0.844012821,22.5116667 13.7793077,24.9799333 15.5264615,25.2737333 L15.5264615,25.2737333 C18.056141,25.6966667 19.2552692,25.3864 21.5942564,24.4608 L21.5942564,24.4608 C25.9045897,22.7612667 35.0354872,14.4360667 35.0354872,14.4360667 L35.0354872,14.4360667 C35.0354872,14.4360667 41.6135128,9.1312 39.5270641,3.7128 L39.5270641,3.7128 C38.6947179,1.5418 36.8367564,0.568533333 34.9023462,0.568533333 L34.9023462,0.568533333 C33.2780256,0.568533333 31.6004487,1.25493333 30.4331026,2.49426667" mask="url(#login-bg-ai)"/>
      </g>
    </g>
    <g filter="url(#login-bg-aj)" transform="translate(0 133)">
      <path fill="#3565FF" fill-rule="nonzero" d="M5.79367493,11.8010279 C15.427482,10.4351147 24.6861595,7.1402204 33.0149297,2.11377436 L36.5175785,0 L40.0107448,2.12923664 C48.3039494,7.1846754 57.5521278,10.4758677 67.1767144,11.7969166 L73,12.5959501 L73,52.5713111 C73,59.6531255 69.7649208,66.3223741 63.6109975,72.3686625 C58.0138624,77.8680509 49.9090332,82.9678332 39.267615,87.7549735 L36.5000447,89 L33.7324745,87.7549735 C23.0909668,82.9678332 14.9862271,77.8680509 9.38900252,72.3686625 C3.23516862,66.3223741 0,59.6531255 0,52.5713111 L0,12.6223164 L5.79367493,11.8010279 Z"/>
      <path fill="url(#login-bg-ak)" fill-rule="nonzero" d="M7,52.2667144 C7,57.0556815 9.28374762,61.7730558 14.0051373,66.4212444 C18.7555603,71.0980524 25.9166405,75.6394312 35.5000445,80 C45.0834486,75.6394312 52.2444397,71.0980524 56.9949517,66.4212444 C61.7163414,61.7730558 64,57.0556815 64,52.2667144 L64,19.2256583 C53.9239129,17.7102956 44.2411956,14.2365268 35.4971946,9 C26.736474,14.1958972 17.0634418,17.6654221 7,19.2213788 L7,52.2667144 L7,52.2667144 Z"/>
      <path fill="#FFF" d="M38.0909091,60 L34.4545455,60 L34.4545455,41.8403303 C31.3065844,40.9425531 29,38.0241371 29,34.5625 C29,30.3858466 32.3578644,27 36.5,27 C40.6421356,27 44,30.3858466 44,34.5625 C44,38.1887162 41.4688746,41.2188299 38.0909091,41.9545202 L38.0909091,51.7971761 L41.2727273,51.7971761 L41.2727273,54.5471761 L38.0909091,54.5471761 L38.0909091,57.25 L41.7272727,57.25 L41.7272727,60 L38.0909091,60 Z"/>
    </g>
  </g>
</svg>
