<svg xmlns="http://www.w3.org/2000/svg" width="16" height="14" viewBox="0 0 16 14">
  <g fill="#2CA7F8">
    <path d="M0.615384615,9.20063991 C0.275517077,9.20063991 0,9.46923325 0,9.80055993 L0,13.40008 C0,13.7314067 0.275517077,14 0.615384615,14 C0.955252154,14 1.23076923,13.7314067 1.23076923,13.40008 L1.23076923,9.80055993 C1.23076923,9.46923325 0.955252154,9.20063991 0.615384615,9.20063991 Z M5.53846154,5 C5.198594,5 4.92307692,5.26859334 4.92307692,5.59992001 L4.92307692,13.3988801 C4.92307692,13.7302068 5.198594,13.9988002 5.53846154,13.9988002 C5.87832908,13.9988002 6.15384615,13.7302068 6.15384615,13.3988801 L6.15384615,5.59992001 C6.15384615,5.26859334 5.87832908,5 5.53846154,5 Z M10.4615385,9.20063991 C10.1216709,9.20063991 9.84615385,9.46923325 9.84615385,9.80055993 L9.84615385,13.40008 C9.84615385,13.7314067 10.1216709,14 10.4615385,14 C10.801406,14 11.0769231,13.7314067 11.0769231,13.40008 L11.0769231,9.80055993 C11.0769231,9.46923325 10.801406,9.20063991 10.4615385,9.20063991 Z M15.3846154,5 C15.0447478,5 14.7692308,5.26859334 14.7692308,5.59992001 L14.7692308,13.3988801 C14.7692308,13.7302068 15.0447478,13.9988002 15.3846154,13.9988002 C15.7244829,13.9988002 16,13.7302068 16,13.3988801 L16,5.59992001 C16,5.26859334 15.7244829,5 15.3846154,5 Z"/>
    <path d="M15.5996541,0.0488362399 C15.5029621,0.0103571908 15.3979899,-0.00409626151 15.2941594,0.00677315635 L12.9216479,0.00677315635 C12.5814864,0.00677315635 12.3057311,0.275805785 12.3057311,0.607674351 C12.3057311,0.939542916 12.5814864,1.20857554 12.9216479,1.20857554 L13.8381321,1.20857554 L10.4481261,4.51473392 L6.00490237,0.1798327 C5.87659216,0.0570413353 5.70153901,-0.00787457445 5.52202361,0.000764144406 C5.3450465,-0.00718740793 5.17269829,0.057283265 5.04653585,0.178630898 L0.163547563,4.94377737 C-0.0631199712,5.18978571 -0.0530015757,5.56578511 0.186585066,5.79985057 C0.426171707,6.03391603 0.811552562,6.04430175 1.06401791,5.82349672 L5.51463261,1.48018288 L9.96401548,5.82109311 C10.0958217,5.94968597 10.2719739,6.00737248 10.4468942,5.99895986 C10.626418,6.00912061 10.8019273,5.94447236 10.929773,5.82109311 L14.7681664,2.07627687 L14.7681664,3.01007732 C14.7681664,3.34194589 15.0439218,3.61097852 15.3840832,3.61097852 C15.7242447,3.61097852 16,3.34194589 16,3.01007732 L16,0.606472548 C15.999539,0.357102056 15.83971,0.134478365 15.5996541,0.0488362399 Z"/>
  </g>
</svg>
